<?xml version="1.0" encoding="utf-8"?>
<!-- Generator: Adobe Illustrator 23.0.3, SVG Export Plug-In . SVG Version: 6.00 Build 0)  -->
<svg version="1.1" id="Layer_1" xmlns="http://www.w3.org/2000/svg" xmlns:xlink="http://www.w3.org/1999/xlink" x="0px" y="0px"
	 viewBox="367 626.05 957.15 271.45" xml:space="preserve" fill="rgb(7,101,212)">
<g>
	<g>
		<g>
			<g>
				<path d="M1120.4,744.8c-38.2,14.4-51.3-14.4-51.3-14.4c-0.1,10.4-0.1,35.5,28.8,41.9l-11.4,23.8
					C1141.6,804.4,1120.4,744.8,1120.4,744.8"/>
				<path d="M1159.4,764.7c1.6,10.9,2.2,19.5,2.3,25.5c0.2,30.7-12.4,51.8-12.6,51.8c-3.6,0.1-21.8,2.5-49.3-6.5
					c1-1.7,7.4-13.4,11.3-28.1c0,0-14.6-2.6-24.4-11.4l-8.8,17.5c0,0-3.5-7.7-12.5-0.3c-21,17-6.6,56.8,16.9,45.5c0,0-7.7-13-2.1-31
					c0,0,0.2,1.1,2.1,2.6c4.5,4.3,15.4,10.9,45.1,14.5c3.8,5.5,16.8,23.6,34.2,15.3c18.4-8.9,10.7-23.5,10.7-23.5
					c-5.4,3.6-14.6,5.9-20.6,6.7c4.2-7.6,11.2-24.3,12.8-42.6c36,5.5,54.8-22.9,54.8-22.9C1184,790.3,1159.4,764.7,1159.4,764.7"/>
				<path d="M1220,777.1c39.7-19.5,60.9-34.6,60.9-34.6c-2.9-6.2-8.1-10.2-8.1-10.2C1256.2,743.7,1226.7,771.3,1220,777.1"/>
				<path d="M1311.9,721.6c0,0,4.5-6,3.7-10c-0.6-3.1-4.3-7.6-13.7,0.8c0,0,4.9-9.9-1.1-11.6c-10.3-2.9-24.6,28.1-24.6,28.1
					s5.6,3.9,8.8,11.3c0,0,13.7,5.5,30.6-5.1C1330.4,725.9,1323.9,712.5,1311.9,721.6"/>
				<path d="M1122,668.4c20.8,10.4,20.4,28.3,20.4,28.3c14-3.9,24.1,0.6,24.1,0.6c-7.9-35.1-26.9-51.4-47.2-64
					c-24.3-15-42.2-4-41.8,8.5C1078.3,666.8,1098,656.5,1122,668.4z"/>
				<path d="M1162.9,711.3c2.9-0.1,5.2,2.7,5.3,6.2c0.1,3.5-2.2,6.3-5,6.4c-2.9,0.1-5.2-2.7-5.3-6.2S1160.1,711.3,1162.9,711.3
					 M1116.6,718c-1.2,17.1,4.5,26.1,4.5,26.1c8.4,9.2,12.3,26,12.3,26c17.9,7.7,25.5-6,25.5-6c31.8-1.3,47-29.1,47-29.1
					c-15.5-33.9-51.9-39.8-73.9-30.7c0,0-26.1-28.4-50.8-31.7c-113.1-15.3-80.6,78.8-47.9,53.7
					C1071.8,696.8,1105.7,704.3,1116.6,718"/>
				<path d="M1070.1,791.6c0-4.5,3.7-8.2,8.2-8.2s8.2,3.7,8.2,8.2c0,4.5-3.7,8.2-8.2,8.2S1070.1,796.1,1070.1,791.6"/>
			</g>
		</g>
	</g>
	<path d="M475.2,761.5c-4.8-6.3-13-14.2-30.1-14.2c-28.4,0-47.4,28.4-47.4,54.3c0,21.9,12.3,37.4,35.5,37.4
		c11.9,0,22.6-4.8,33.8-15.2l14.2,20.3c-13.8,12.5-31.5,21.3-52.8,21.3c-38.2,0-61.4-25.3-61.4-60.3c0-48.9,38.4-84.4,82.1-84.4
		c24.9,0,37.8,10.6,47,21.3L475.2,761.5z"/>
	<path d="M514.1,863.2h-28l24.8-140.1h28L514.1,863.2z"/>
	<path d="M611.8,826.3h-56.2c0,0.4,0,1,0,1.5c0.6,12.3,7.1,18.2,17.7,18.2c9.8,0,19.2-3.6,26.3-9.2l9.6,14.8
		c-9.8,8.1-22.3,13.8-38.8,13.8c-24.4,0-39.9-12.9-39.9-37.2c0-25.3,18.8-50.8,47.4-50.8c20.5,0,35.5,13.2,35.5,34.3
		C613.4,816.5,613,821.9,611.8,826.3z M576.9,795.4c-8.4,0-15.2,5.8-18.8,16.5h31.1C589.8,804.1,586.9,795.4,576.9,795.4z"/>
	<path d="M700.2,826.3h-56.2c0,0.4,0,1,0,1.5c0.6,12.3,7.1,18.2,17.7,18.2c9.8,0,19.2-3.6,26.3-9.2l9.6,14.8
		c-9.8,8.1-22.3,13.8-38.8,13.8c-24.4,0-39.9-12.9-39.9-37.2c0-25.3,18.8-50.8,47.4-50.8c20.5,0,35.5,13.2,35.5,34.3
		C701.7,816.5,701.3,821.9,700.2,826.3z M665.2,795.4c-8.4,0-15.2,5.8-18.8,16.5h31.1C678.1,804.1,675.2,795.4,665.2,795.4z"/>
	<path d="M787.5,863.2h-28.2l8.6-47.4c1.5-10-2.1-14.8-9.2-14.8c-8.6,0-17.1,9.4-19,20.1l-7.5,42h-28l14.6-83.5H747l-1.9,10.7
		c6.3-6.5,15.2-13,26.7-13c19,0,28.8,12.3,24.9,33.4L787.5,863.2z"/>
	<path d="M927.6,803.1c-6.9,39.3-31.7,62.4-67,62.4c-35.7,0-58.3-22.1-51.2-62.4l14.2-80H854l-14.4,82.1c-4,23,6.7,34.7,24,34.7
		c17.8,0,29.2-7.9,33.8-34.7l14.4-82.1h30.1L927.6,803.1z"/>
	<path d="M981.2,865.1c-11.3,0-18.8-4.6-23.2-10.2l-7.5,42.6h-28l20.7-117.8h28.2l-1.9,10.7c6.3-6.7,14.6-12.7,25.9-12.7
		c17.7,0,30.5,13.8,30.5,36.5C1025.9,837.8,1007.1,865.1,981.2,865.1z M985,799.6c-10,0-19.4,10.7-21.9,26.1l-1.3,7.7
		c2.1,5,7.7,9.6,15.7,9.6c11.5,0,21.1-12.3,21.1-26.3C998.6,804.6,993.1,799.6,985,799.6z"/>
</g>
</svg>
