<?xml version="1.0" encoding="UTF-8"?>
<svg xmlns="http://www.w3.org/2000/svg" xmlns:xlink="http://www.w3.org/1999/xlink" version="1.1" id="Layer_1" x="0px" y="0px" viewBox="367.0000305175781 429.5274658203125 694.8997802734375 467.97247314453125" enable-background="new 0 0 1920 1920" xml:space="preserve" style="box-shadow: none; border-radius: 0px; opacity: 1;" preserveAspectRatio="xMidYMid meet" fill="#087efe" fill-opacity="1">
<g>
	<g>
		<g>
			<path d="M682.9,591.1c-51.9,19.6-69.8-19.6-69.8-19.6c-0.1,14.2-0.1,48.2,39.2,57l-15.4,32.3     C711.7,672.1,682.9,591.1,682.9,591.1"></path>
			<path d="M735.9,618.1c2.2,14.8,2.9,26.5,3.1,34.7c0.3,41.8-16.9,70.5-17.1,70.5c-4.8,0.2-29.6,3.4-67.1-8.8     c1.3-2.3,10-18.2,15.3-38.2c0,0-19.9-3.5-33.1-15.5l-12,23.8c0,0-4.7-10.4-17-0.5c-28.5,23.1-9,77.2,23,61.9     c0,0-10.5-17.7-2.9-42.1c0,0,0.3,1.5,2.9,3.5c6.1,5.9,20.9,14.8,61.4,19.7c5.2,7.5,22.9,32.1,46.6,20.7     c25.1-12.1,14.5-32,14.5-32c-7.3,4.9-19.9,8-28,9.1c5.7-10.3,15.2-33,17.4-57.9c49,7.4,74.5-31.1,74.5-31.1     C769.4,652.9,735.9,618.1,735.9,618.1"></path>
			<path d="M818.4,634.9c53.9-26.5,82.8-47.1,82.8-47.1c-3.9-8.4-11-13.9-11-13.9C867.7,589.5,827.6,627,818.4,634.9"></path>
			<path d="M943.4,559.4c0,0,6.1-8.1,5-13.6c-0.8-4.3-5.9-10.3-18.6,1.1c0,0,6.6-13.5-1.5-15.7c-14-3.9-33.4,38.3-33.4,38.3     s7.6,5.4,11.9,15.4c0,0,18.6,7.5,41.5-6.9C968.5,565.3,959.6,547.1,943.4,559.4"></path>
			<path d="M685.1,487.2c28.3,14.1,27.7,38.4,27.7,38.4c19.1-5.3,32.8,0.8,32.8,0.8c-10.8-47.7-36.6-69.9-64.2-87     c-33-20.4-57.3-5.5-56.8,11.5C625.7,484.9,652.6,471,685.1,487.2z"></path>
			<path d="M740.8,545.5c3.9-0.1,7.1,3.7,7.2,8.4c0.1,4.7-3,8.6-6.9,8.7c-3.9,0.1-7.1-3.7-7.2-8.4     C733.8,549.4,736.9,545.5,740.8,545.5 M677.9,554.6c-1.7,23.3,6.1,35.5,6.1,35.5c11.5,12.5,16.7,35.4,16.7,35.4     c24.3,10.4,34.7-8.1,34.7-8.1c43.2-1.8,63.9-39.6,63.9-39.6c-21.1-46.1-70.6-54-100.4-41.8c0,0-35.5-38.6-69.1-43.1     c-153.8-20.8-109.6,107.1-65.1,73C616.9,525.8,662.9,535.9,677.9,554.6"></path>
			<path d="M614.6,654.7c0-6.1,5-11.1,11.1-11.1c6.1,0,11.1,5,11.1,11.1c0,6.1-5,11.1-11.1,11.1     C619.6,665.8,614.6,660.9,614.6,654.7"></path>
		</g>
	</g>
</g>
<path d="M475.2,761.5c-4.8-6.3-13-14.2-30.1-14.2c-28.4,0-47.4,28.4-47.4,54.3c0,21.9,12.3,37.4,35.5,37.4  c11.9,0,22.6-4.8,33.8-15.2l14.2,20.3c-13.8,12.5-31.5,21.3-52.8,21.3c-38.2,0-61.4-25.3-61.4-60.3c0-48.9,38.4-84.4,82.1-84.4  c24.9,0,37.8,10.6,47,21.3L475.2,761.5z"></path>
<path d="M514.1,863.2h-28l24.8-140.1h28L514.1,863.2z"></path>
<path d="M611.8,826.3h-56.2c0,0.4,0,1,0,1.5c0.6,12.3,7.1,18.2,17.7,18.2c9.8,0,19.2-3.6,26.3-9.2l9.6,14.8  c-9.8,8.1-22.3,13.8-38.8,13.8c-24.4,0-39.9-12.9-39.9-37.2c0-25.3,18.8-50.8,47.4-50.8c20.5,0,35.5,13.2,35.5,34.3  C613.4,816.5,613,821.9,611.8,826.3z M576.9,795.4c-8.4,0-15.2,5.8-18.8,16.5h31.1C589.8,804.1,586.9,795.4,576.9,795.4z"></path>
<path d="M700.2,826.3h-56.2c0,0.4,0,1,0,1.5c0.6,12.3,7.1,18.2,17.7,18.2c9.8,0,19.2-3.6,26.3-9.2l9.6,14.8  c-9.8,8.1-22.3,13.8-38.8,13.8c-24.4,0-39.9-12.9-39.9-37.2c0-25.3,18.8-50.8,47.4-50.8c20.5,0,35.5,13.2,35.5,34.3  C701.7,816.5,701.3,821.9,700.2,826.3z M665.2,795.4c-8.4,0-15.2,5.8-18.8,16.5h31.1C678.1,804.1,675.2,795.4,665.2,795.4z"></path>
<path d="M787.5,863.2h-28.2l8.6-47.4c1.5-10-2.1-14.8-9.2-14.8c-8.6,0-17.1,9.4-19,20.1l-7.5,42h-28l14.6-83.5H747l-1.9,10.7  c6.3-6.5,15.2-13,26.7-13c19,0,28.8,12.3,24.9,33.4L787.5,863.2z"></path>
<path d="M927.6,803.1c-6.9,39.3-31.7,62.4-67,62.4c-35.7,0-58.3-22.1-51.2-62.4l14.2-80H854l-14.4,82.1c-4,23,6.7,34.7,24,34.7  c17.8,0,29.2-7.9,33.8-34.7l14.4-82.1h30.1L927.6,803.1z"></path>
<path d="M981.2,865.1c-11.3,0-18.8-4.6-23.2-10.2l-7.5,42.6h-28l20.7-117.8h28.2l-1.9,10.7c6.3-6.7,14.6-12.7,25.9-12.7  c17.7,0,30.5,13.8,30.5,36.5C1025.9,837.8,1007.1,865.1,981.2,865.1z M985,799.6c-10,0-19.4,10.7-21.9,26.1l-1.3,7.7  c2.1,5,7.7,9.6,15.7,9.6c11.5,0,21.1-12.3,21.1-26.3C998.6,804.6,993.1,799.6,985,799.6z"></path>
<g>
	<path d="M1031.7,771.6h-5.4V768h14.8v3.6h-5.4v14.2h-3.9V771.6z"></path>
	<path d="M1044.1,768h4.2l4.7,7.6l4.7-7.6h4.2v17.9h-3.9v-11.7l-5,7.6h-0.1l-5-7.6v11.6h-3.9V768z"></path>
</g>
</svg>